<?xml version="1.0" encoding="UTF-8"?>
<svg width="681px" height="100px" viewBox="0 0 681 100" version="1.1" xmlns="http://www.w3.org/2000/svg" xmlns:xlink="http://www.w3.org/1999/xlink">
    <!-- Generator: Sketch 51.3 (57544) - http://www.bohemiancoding.com/sketch -->
    <title>Artboard</title>
    <desc>Created with Sketch.</desc>
    <defs>
        <path d="M49.8,0 L83,33.3333333 L83,88.3333333 C83,94.7766554 77.7975488,100 71.38,100 L11.62,100 C5.20245121,100 0,94.7766554 0,88.3333333 L0,11.6666667 C0,5.22334459 5.20245121,0 11.62,0 L49.8,0 Z" id="path-1"></path>
    </defs>
    <g id="Page-1" stroke="none" stroke-width="1" fill="none" fill-rule="evenodd">
        <g id="Artboard">
            <path d="M101.2,29.8 C101.2,26.1333328 101.166667,23.4 101.1,21.6 C101.1,20.5333328 101.083333,18.9 101.05,16.7 C101.016667,14.5 101,12.8666672 101,11.8 C101,9.73333282 102.4,8.6 105.2,8.4 C108,8.2 113.3,8.1 121.1,8.1 C127.3,8.1 132.566667,9.56666718 136.9,12.5 C142.1,16.1 144.7,21.6666672 144.7,29.2 C144.7,33.6 143.333333,37.7333328 140.6,41.6 C137.866667,45.4666672 134.333333,48 130,49.2 C127.6,49.8666672 120.233333,50.2 107.9,50.2 L106.6,50.2 C106.6,52.6 106.633333,56.4 106.7,61.6 C106.766667,66.8 106.8,70.9 106.8,73.9 C106.8,75.7666672 105.9,76.7 104.1,76.7 C102.166667,76.7 101.2,75.9 101.2,74.3 L101.2,29.8 Z M106.6,33.4 C106.6,34.5333328 106.633333,36.4333328 106.7,39.1 C106.766667,41.7666672 106.8,43.7333328 106.8,45 L111.9,45 C119.5,45.2 124.866667,44.9 128,44.1 C131.6,43.2333328 134.366667,41.3333328 136.3,38.4 C138.233333,35.4666672 139.233333,32.3 139.3,28.9 C139.366667,23.3 137.333333,19.1333328 133.2,16.4 C129.866667,14.3333328 125.233333,13.3 119.3,13.3 C112.766667,13.3 108.5,13.4 106.5,13.6 C106.5,15.7333328 106.516667,19.0333328 106.55,23.5 C106.583333,27.9666672 106.6,31.2666672 106.6,33.4 Z M168.5,69.6 C172.7,60.6666672 177.8,48.6 183.8,33.4 C184.066667,32.6666672 184.266667,32.15 184.4,31.85 C184.533333,31.55 184.816667,31.2333328 185.25,30.9 C185.683333,30.5666672 186.233333,30.4 186.9,30.4 C187.7,30.4 188.366667,30.6333328 188.9,31.1 C189.433333,31.5666672 189.7,32.2 189.7,33 C189.7,33.5333328 189.566667,34.1333328 189.3,34.8 C185.766667,43.5333328 177.933333,60.8 165.8,86.6 C161.4,94.4666672 156.7,98.4 151.7,98.4 C147.833333,98.4 145.9,97.4333328 145.9,95.5 C145.9,94.5 146.15,93.8 146.65,93.4 C147.15,93 148,92.8 149.2,92.8 C151.8,92.8 153.683333,92.4333328 154.85,91.7 C156.016667,90.9666672 157.5,89.2 159.3,86.4 C160.433333,84.6 162.5,80.6666672 165.5,74.6 L160.9,64.8 L148.9,37.3 C147.833333,34.9 147.3,33.4333328 147.3,32.9 C147.3,32.1666672 147.6,31.55 148.2,31.05 C148.8,30.55 149.466667,30.3 150.2,30.3 C151.066667,30.3 151.8,30.8 152.4,31.8 C160.133333,50.3333328 165.5,62.9333328 168.5,69.6 Z M194.9,36 C193.1,36 192.2,35.2333328 192.2,33.7 C192.2,31.9 193.233333,31 195.3,31 L202.5,31 L202.6,21.8 C202.6,18.6666672 203.566667,17.1 205.5,17.1 C206.1,17.1 206.566667,17.1666672 206.9,17.3 C207.233333,17.4333328 207.466667,17.7166672 207.6,18.15 C207.733333,18.5833328 207.816667,18.95 207.85,19.25 C207.883333,19.55 207.9,20.1333328 207.9,21 C207.9,21.8 207.866667,23.4333328 207.8,25.9 C207.733333,28.3666672 207.7,30.0666672 207.7,31 L219.2,30.9 C221.066667,30.9 222,31.7333328 222,33.4 C222,35.0666672 220.966667,35.9 218.9,35.9 L207.8,35.9 L207.8,58 C207.8,62.9333328 208.333333,66.45 209.4,68.55 C210.466667,70.65 212.4,71.7 215.2,71.7 C216.2,71.7 217.216667,71.5166672 218.25,71.15 C219.283333,70.7833328 220.033333,70.6 220.5,70.6 C221.166667,70.6 221.7,70.8833328 222.1,71.45 C222.5,72.0166672 222.7,72.6333328 222.7,73.3 C222.7,74.4333328 222.133333,75.2333328 221,75.7 C219.2,76.3666672 217.4,76.7 215.6,76.7 C210.8,76.7 207.383333,75.3666672 205.35,72.7 C203.316667,70.0333328 202.3,65.6 202.3,59.4 C202.3,56.9333328 202.35,53.0333328 202.45,47.7 C202.55,42.3666672 202.6,38.4666672 202.6,36 L194.9,36 Z M228,7 C228,4.33333282 229.033333,3 231.1,3 C232.833333,3 233.7,4.2 233.7,6.6 C233.7,7.6 233.683333,9.05 233.65,10.95 C233.616667,12.85 233.566667,16.2666672 233.5,21.2 C233.433333,26.1333328 233.4,32.5 233.4,40.3 C234.933333,37.1 237.15,34.5666672 240.05,32.7 C242.95,30.8333328 246.366667,29.9 250.3,29.9 C255.366667,29.9 259.466667,31.7833328 262.6,35.55 C265.733333,39.3166672 267.3,44 267.3,49.6 L267.3,73.5 C267.3,75.4333328 266.333333,76.4 264.4,76.4 C262.466667,76.4 261.5,75.5333328 261.5,73.8 C261.833333,67.6 262,59.7 262,50.1 C262,45.3 260.85,41.6166672 258.55,39.05 C256.25,36.4833328 253.033333,35.2 248.9,35.2 C244.566667,35.2 240.866667,36.8833328 237.8,40.25 C234.733333,43.6166672 233.2,47.7333328 233.2,52.6 C233.2,54.8 233.233333,58.6833328 233.3,64.25 C233.366667,69.8166672 233.4,72.9333328 233.4,73.6 C233.4,75.4666672 232.466667,76.4 230.6,76.4 C228.8,76.4 227.9,75.5666672 227.9,73.9 C227.9,71.7 227.933333,69.0833328 228,66.05 C228.066667,63.0166672 228.1,61.0666672 228.1,60.2 L228,7 Z M296.4,29.8 C297.466667,29.8 298.166667,30.0666672 298.5,30.6 C302.433333,31.1333328 305.816667,32.6333328 308.65,35.1 C311.483333,37.5666672 313.5,40.4 314.7,43.6 C315.9,46.8 316.5,50.1666672 316.5,53.7 C316.5,60.3666672 314.25,65.9166672 309.75,70.35 C305.25,74.7833328 299.7,77 293.1,77 C287.366667,77 282.366667,74.95 278.1,70.85 C273.833333,66.75 271.7,61.5 271.7,55.1 C271.7,47.6333328 273.95,41.55 278.45,36.85 C282.95,32.15 288.933333,29.8 296.4,29.8 Z M310.9,53.4 C310.9,48.0666672 309.45,43.7833328 306.55,40.55 C303.65,37.3166672 299.4,35.5 293.8,35.1 C288.8,35.4333328 284.8,37.4 281.8,41 C278.8,44.6 277.3,49.4 277.3,55.4 C277.3,60.1333328 278.916667,64.0166672 282.15,67.05 C285.383333,70.0833328 288.966667,71.6 292.9,71.6 C297.7,71.6 301.9,69.9333328 305.5,66.6 C309.1,63.2666672 310.9,58.8666672 310.9,53.4 Z M321.7,47 L321.5,34.7 C321.5,33.2333328 321.7,32.15 322.1,31.45 C322.5,30.75 323.3,30.4 324.5,30.4 C325.633333,30.4 326.333333,30.7166672 326.6,31.35 C326.866667,31.9833328 327.033333,33.2 327.1,35 L327.1,40.3 C328.5,36.9666672 330.766667,34.4 333.9,32.6 C337.033333,30.8 340.5,29.9 344.3,29.9 C349.633333,29.9 353.733333,31.6166672 356.6,35.05 C359.466667,38.4833328 360.9,43.2 360.9,49.2 L360.9,72 C360.9,73.0666672 360.866667,73.85 360.8,74.35 C360.733333,74.85 360.466667,75.3166672 360,75.75 C359.533333,76.1833328 358.833333,76.4 357.9,76.4 C356.166667,76.4 355.3,75.4666672 355.3,73.6 C355.3,71.6666672 355.366667,68.1 355.5,62.9 C355.633333,57.7 355.666667,53.7333328 355.6,51 C355.466667,40.5333328 351.366667,35.3 343.3,35.3 C339.966667,35.3 337.166667,35.9 334.9,37.1 C332.633333,38.3 330.966667,39.9833328 329.9,42.15 C328.833333,44.3166672 328.1,46.4833328 327.7,48.65 C327.3,50.8166672 327.1,53.3 327.1,56.1 L327.1,73.8 C327.1,75.6666672 326.066667,76.6 324,76.6 C322.4,76.6 321.6,75.7 321.6,73.9 C321.6,73.3 321.616667,72.1333328 321.65,70.4 C321.683333,68.6666672 321.7,65.8166672 321.7,61.85 L321.7,47 Z M371.5,11.2 C371.5,9.06666718 372.533333,8 374.6,8 C376.266667,8 377.1,9.1 377.1,11.3 C377.1,15.7 377.033333,23.3 376.9,34.1 C376.766667,44.3666672 376.666667,51.2333328 376.6,54.7 C376.6,58.0333328 376.583333,60.9 376.55,63.3 C376.516667,65.7 376.5,67.5166672 376.5,68.75 L376.5,71.2 C383.3,71.2 387.666667,71.1666672 389.6,71.1 L405.8,70.5 C407.8,70.5 408.8,71.3 408.8,72.9 C408.8,74.9666672 407.766667,76 405.7,76 L393.9,76 C385.766667,76 380.366667,76.0666672 377.7,76.2 C375.1,76.3333328 373.333333,76.0833328 372.4,75.45 C371.466667,74.8166672 371,73.4666672 371,71.4 C371,71.1333328 371.016667,70.6 371.05,69.8 C371.083333,69 371.1,68.2 371.1,67.4 C371.1,64.5333328 371.15,60.2166672 371.25,54.45 C371.35,48.6833328 371.433333,44.3333328 371.5,41.4 L371.5,11.2 Z M454.3,43.4 L454.1,58.6 C454.1,63.1333328 454.266667,68.3 454.6,74.1 C454.6,74.7666672 454.283333,75.3166672 453.65,75.75 C453.016667,76.1833328 452.366667,76.4 451.7,76.4 C451.033333,76.4 450.5,76.2666672 450.1,76 C449.7,75.7333328 449.416667,75.1666672 449.25,74.3 C449.083333,73.4333328 448.983333,72.6833328 448.95,72.05 C448.916667,71.4166672 448.9,70.2666672 448.9,68.6 L448.9,67.2 C445.366667,73.5333328 439.533333,76.7 431.4,76.7 C425.266667,76.7 420.25,74.5666672 416.35,70.3 C412.45,66.0333328 410.5,60.9333328 410.5,55 C410.5,48.0666672 412.65,42.2166672 416.95,37.45 C421.25,32.6833328 426.566667,30.3 432.9,30.3 C439.833333,30.3 445.166667,33.2 448.9,39 L448.9,34.3 C448.9,31.8333328 449.833333,30.6 451.7,30.6 C452.566667,30.6 453.216667,30.85 453.65,31.35 C454.083333,31.85 454.316667,32.3666672 454.35,32.9 C454.383333,33.4333328 454.4,34.3333328 454.4,35.6 L454.3,43.4 Z M416.1,54.8 C416.1,59.6666672 417.65,63.6833328 420.75,66.85 C423.85,70.0166672 427.6,71.6 432,71.6 C437,71.6 441.116667,69.9333328 444.35,66.6 C447.583333,63.2666672 449.2,58.9333328 449.2,53.6 C449.2,47.9333328 447.55,43.4666672 444.25,40.2 C440.95,36.9333328 437.066667,35.3 432.6,35.3 C427.933333,35.3 424.016667,37.1666672 420.85,40.9 C417.683333,44.6333328 416.1,49.2666672 416.1,54.8 Z M464.2,52 C464.2,48.9333328 464.183333,46.2 464.15,43.8 C464.116667,41.4 464.083333,39.5833328 464.05,38.35 C464.016667,37.1166672 463.983333,36.1166672 463.95,35.35 C463.916667,34.5833328 463.9,34.05 463.9,33.75 L463.9,33.2 C463.9,31.2666672 464.833333,30.3 466.7,30.3 C468.433333,30.3 469.333333,31.5333328 469.4,34 L469.5,39.1 C470.966667,35.8333328 473.15,33.4666672 476.05,32 C478.95,30.5333328 481.933333,29.8 485,29.8 C488.333333,29.8 491.25,30.8 493.75,32.8 C496.25,34.8 497.866667,37.2666672 498.6,40.2 C501.866667,33.3333328 507.333333,29.9 515,29.9 C520.466667,29.9 524.433333,31.7166672 526.9,35.35 C529.366667,38.9833328 530.6,43.7333328 530.6,49.6 L530.6,58.6 C530.6,60.4 530.55,63.0666672 530.45,66.6 C530.35,70.1333328 530.3,72.5333328 530.3,73.8 C530.3,75.5333328 529.333333,76.4 527.4,76.4 C525.666667,76.4 524.8,75.6 524.8,74 C525.066667,62 525.2,54.3333328 525.2,51 C525.2,40.5333328 521.5,35.3 514.1,35.3 C509.966667,35.3 506.666667,36.5666672 504.2,39.1 C501.733333,41.6333328 500.4,45.4333328 500.2,50.5 L500.2,71.3 C500.2,72.2333328 500.183333,72.9 500.15,73.3 C500.116667,73.7 500.016667,74.2 499.85,74.8 C499.683333,75.4 499.366667,75.8166672 498.9,76.05 C498.433333,76.2833328 497.833333,76.4 497.1,76.4 C495.5,76.4 494.7,75.5333328 494.7,73.8 C494.9,64.2666672 494.933333,55.9333328 494.8,48.8 C494.333333,39.7333328 490.633333,35.2 483.7,35.2 C478.9,35.2 475.283333,36.8333328 472.85,40.1 C470.416667,43.3666672 469.2,48.1 469.2,54.3 L469.3,74.2 C469.233333,75.7333328 468.266667,76.5 466.4,76.5 C465.733333,76.5 465.133333,76.3 464.6,75.9 C464.066667,75.5 463.8,74.9666672 463.8,74.3 L463.8,69.9 L464.2,52 Z M538.2,6.8 C538.266667,4.93333282 539.2,4 541,4 C542.866667,4 543.8,4.93333282 543.8,6.8 C543.733333,9.6 543.7,20.7333328 543.7,40.2 C545.433333,36.9333328 547.9,34.3833328 551.1,32.55 C554.3,30.7166672 557.8,29.8 561.6,29.8 C567.6,29.8 572.583333,32.1333328 576.55,36.8 C580.516667,41.4666672 582.5,46.8 582.5,52.8 C582.5,59.6 580.366667,65.3166672 576.1,69.95 C571.833333,74.5833328 566.6,76.9 560.4,76.9 C557,76.9 553.75,76.05 550.65,74.35 C547.55,72.65 545.2,70.3333328 543.6,67.4 L543.6,73.3 C543.533333,75.3666672 542.6,76.4 540.8,76.4 C539.066667,76.4 538.2,75.1666672 538.2,72.7 L538.6,51.4 L538.2,6.8 Z M576.9,52.9 C576.9,48.2333328 575.333333,44.1 572.2,40.5 C569.066667,36.9 565.3,35.1 560.9,35.1 C556.166667,35.1 552.083333,36.8666672 548.65,40.4 C545.216667,43.9333328 543.5,48.3333328 543.5,53.6 C543.5,58.8666672 545.15,63.1833328 548.45,66.55 C551.75,69.9166672 555.533333,71.6 559.8,71.6 C564.466667,71.6 568.483333,69.8333328 571.85,66.3 C575.216667,62.7666672 576.9,58.3 576.9,52.9 Z M631.4,6.6 L631.2,32.4 L631.2,51.1 C631.2,51.9666672 631.233333,54.6833328 631.3,59.25 C631.366667,63.8166672 631.4,68.6666672 631.4,73.8 C631.4,75.8 630.5,76.8 628.7,76.8 C626.833333,76.8 625.9,75.6666672 625.9,73.4 L625.9,66.7 C621.9,73.5 616.166667,76.9 608.7,76.9 C602.7,76.9 597.683333,74.6166672 593.65,70.05 C589.616667,65.4833328 587.6,60.3333328 587.6,54.6 C587.6,47.8 589.766667,42.0666672 594.1,37.4 C598.433333,32.7333328 603.766667,30.4 610.1,30.4 C613.433333,30.4 616.533333,31.2 619.4,32.8 C622.266667,34.4 624.5,36.6 626.1,39.4 L625.8,7.8 C625.8,6.4 626,5.41666718 626.4,4.85 C626.8,4.28333282 627.566667,4 628.7,4 C630.5,4 631.4,4.86666718 631.4,6.6 Z M593.1,54.3 C593.1,59.0333328 594.666667,63.0833328 597.8,66.45 C600.933333,69.8166672 604.7,71.5 609.1,71.5 C613.7,71.5 617.65,69.8666672 620.95,66.6 C624.25,63.3333328 625.9,58.9666672 625.9,53.5 C625.9,48.2333328 624.4,43.9166672 621.4,40.55 C618.4,37.1833328 614.633333,35.5 610.1,35.5 C605.5,35.5 601.516667,37.3 598.15,40.9 C594.783333,44.5 593.1,48.9666672 593.1,54.3 Z M680.9,43.4 L680.7,58.6 C680.7,63.1333328 680.866667,68.3 681.2,74.1 C681.2,74.7666672 680.883333,75.3166672 680.25,75.75 C679.616667,76.1833328 678.966667,76.4 678.3,76.4 C677.633333,76.4 677.1,76.2666672 676.7,76 C676.3,75.7333328 676.016667,75.1666672 675.85,74.3 C675.683333,73.4333328 675.583333,72.6833328 675.55,72.05 C675.516667,71.4166672 675.5,70.2666672 675.5,68.6 L675.5,67.2 C671.966667,73.5333328 666.133333,76.7 658,76.7 C651.866667,76.7 646.85,74.5666672 642.95,70.3 C639.05,66.0333328 637.1,60.9333328 637.1,55 C637.1,48.0666672 639.25,42.2166672 643.55,37.45 C647.85,32.6833328 653.166667,30.3 659.5,30.3 C666.433333,30.3 671.766667,33.2 675.5,39 L675.5,34.3 C675.5,31.8333328 676.433333,30.6 678.3,30.6 C679.166667,30.6 679.816667,30.85 680.25,31.35 C680.683333,31.85 680.916667,32.3666672 680.95,32.9 C680.983333,33.4333328 681,34.3333328 681,35.6 L680.9,43.4 Z M642.7,54.8 C642.7,59.6666672 644.25,63.6833328 647.35,66.85 C650.45,70.0166672 654.2,71.6 658.6,71.6 C663.6,71.6 667.716667,69.9333328 670.95,66.6 C674.183333,63.2666672 675.8,58.9333328 675.8,53.6 C675.8,47.9333328 674.15,43.4666672 670.85,40.2 C667.55,36.9333328 663.666667,35.3 659.2,35.3 C654.533333,35.3 650.616667,37.1666672 647.45,40.9 C644.283333,44.6333328 642.7,49.2666672 642.7,54.8 Z" id="Python-Lambda" fill="#373B4B"></path>
            <g id="Group">
                <g id="Code">
                    <g id="Main">
                        <mask id="mask-2" fill="white">
                            <use xlink:href="#path-1"></use>
                        </mask>
                        <use id="Mask" fill="#FB7E14" xlink:href="#path-1"></use>
                        <polygon id="path2255" fill="#FFFFFF" mask="url(#mask-2)" points="33.8155341 38 33.8155341 43.906103 38.572816 43.906103 40.5266993 50.0727696 26 73.0892008 33.1359227 73.0892008 43.5000003 57.4553985 50.2961177 75 61 71.5258204 59.3009724 66.1408438 54.3737865 67.7042242 42.8203886 38"></polygon>
                        <polygon id="Path-2" fill="#9D4F25" fill-rule="nonzero" opacity="0.900000036" mask="url(#mask-2)" points="54 29 83 53 83 29"></polygon>
                    </g>
                    <path d="M50,0 L70.8666369,0 C77.2455258,0 83,5.75447423 83,12.1333631 L83,33 L50,0 Z" id="Corner" fill="#EDC2A3" transform="translate(66.500000, 16.500000) scale(-1, -1) translate(-66.500000, -16.500000) "></path>
                </g>
            </g>
        </g>
    </g>
</svg>